<?xml version="1.0" encoding="UTF-8" standalone="no"?>
<svg xmlns:dc="http://purl.org/dc/elements/1.1/" xmlns:cc="http://creativecommons.org/ns#" xmlns:rdf="http://www.w3.org/1999/02/22-rdf-syntax-ns#" xmlns:svg="http://www.w3.org/2000/svg" xmlns="http://www.w3.org/2000/svg" xmlns:sodipodi="http://sodipodi.sourceforge.net/DTD/sodipodi-0.dtd" xmlns:inkscape="http://www.inkscape.org/namespaces/inkscape" viewBox="0 0 15.999999 15.999999" height="15.999999" width="15.999999" xml:space="preserve" id="svg2" version="1.1" sodipodi:docname="ch_favicon.svg" inkscape:version="0.92.0 r15299">
    <sodipodi:namedview pagecolor="#ffffff" bordercolor="#666666" borderopacity="1" objecttolerance="10" gridtolerance="10" guidetolerance="10" inkscape:pageopacity="0" inkscape:pageshadow="2" inkscape:window-width="2560" inkscape:window-height="1377" id="namedview13" showgrid="false" fit-margin-top="0" fit-margin-left="0" fit-margin-right="0" fit-margin-bottom="0" inkscape:zoom="1.0324372" inkscape:cx="114.29266" inkscape:cy="114.27933" inkscape:window-x="2552" inkscape:window-y="-8" inkscape:window-maximized="1" inkscape:current-layer="svg2"/>
    <metadata id="metadata8">
        <rdf:RDF>
            <cc:Work rdf:about="">
                <dc:format>image/svg+xml</dc:format>
                <dc:type rdf:resource="http://purl.org/dc/dcmitype/StillImage"/>
                <dc:title></dc:title>
            </cc:Work>
        </rdf:RDF>
    </metadata>
    <defs id="defs6">
        <clipPath id="clipPath20" clipPathUnits="userSpaceOnUse">
            <path id="path18" d="M 0,171.439 H 171.439 V 0 H 0 Z" inkscape:connector-curvature="0"/>
        </clipPath>
    </defs>
    <g transform="matrix(0.09333364,0,0,-0.09333364,0,16.000933)" id="g10">
        <path id="path12" style="fill:#110e0c;fill-opacity:1;fill-rule:nonzero;stroke:none" d="M 0,0.01 H 171.428 V 171.438 H 0 Z" inkscape:connector-curvature="0"/>
        <g id="g14">
            <g clip-path="url(#clipPath20)" id="g16">
                <g transform="translate(94.3501,100.4814)" id="g22">
                    <path id="path24" style="fill:#ffffff;fill-opacity:1;fill-rule:nonzero;stroke:none" d="m 0,0 c 0,3.012 0,8.474 -7.943,8.474 -8.867,0 -9.556,-7.155 -9.556,-9.793 v -56.257 c 0,-5.079 0,-10.729 8.641,-10.729 5.905,0 8.858,3.584 8.858,8.662 z m -35.66,52.501 h 18.161 V 13.357 c 1.595,2.253 6.14,8.465 17.499,8.465 6.812,0 12.266,-2.431 15.217,-6.212 2.717,-3.573 3.17,-7.884 3.17,-11.092 v -63.59 c 0,-3.76 0,-22.933 -22.245,-22.933 -12.499,0 -15.905,6.752 -17.499,10.137 -2.48,-3.563 -2.943,-4.508 -4.085,-8.465 H -35.66 Z" inkscape:connector-curvature="0"/>
                </g>
            </g>
        </g>
    </g>
</svg>
